<mxfile host="65bd71144e" scale="2" border="0">
    <diagram id="TkqTKa8OCuHq-zXPvSPR" name="Page-1">
        <mxGraphModel dx="906" dy="397" grid="1" gridSize="10" guides="1" tooltips="1" connect="1" arrows="1" fold="1" page="1" pageScale="1" pageWidth="850" pageHeight="1100" background="#ffffff" math="0" shadow="0">
            <root>
                <mxCell id="0"/>
                <mxCell id="1" parent="0"/>
                <mxCell id="mlyRW9mOE5CwS9S9jdWl-1" value="&lt;div&gt;Server&lt;/div&gt;&lt;div&gt;(Python)&lt;br&gt;&lt;/div&gt;" style="rounded=1;whiteSpace=wrap;html=1;verticalAlign=top;" parent="1" vertex="1">
                    <mxGeometry x="330" y="80" width="190" height="200" as="geometry"/>
                </mxCell>
                <mxCell id="mlyRW9mOE5CwS9S9jdWl-2" value="Embedded firmware" style="rounded=1;whiteSpace=wrap;html=1;verticalAlign=top;align=center;" parent="1" vertex="1">
                    <mxGeometry x="670" y="120" width="180" height="145" as="geometry"/>
                </mxCell>
                <mxCell id="mlyRW9mOE5CwS9S9jdWl-3" value="&lt;div&gt;Scrutiny lib (C++11)&lt;/div&gt;" style="rounded=1;whiteSpace=wrap;html=1;" parent="1" vertex="1">
                    <mxGeometry x="709" y="150" width="70" height="60" as="geometry"/>
                </mxCell>
                <mxCell id="mlyRW9mOE5CwS9S9jdWl-6" value="&lt;div&gt;GUI Client&lt;br&gt;(Electron / React)&lt;br&gt;&lt;/div&gt;" style="rounded=1;whiteSpace=wrap;html=1;" parent="1" vertex="1">
                    <mxGeometry x="30" y="60" width="120" height="70" as="geometry"/>
                </mxCell>
                <mxCell id="mlyRW9mOE5CwS9S9jdWl-20" style="edgeStyle=orthogonalEdgeStyle;rounded=0;orthogonalLoop=1;jettySize=auto;html=1;exitX=1;exitY=0.5;exitDx=0;exitDy=0;startArrow=classic;startFill=1;" parent="1" source="mlyRW9mOE5CwS9S9jdWl-7" target="mlyRW9mOE5CwS9S9jdWl-14" edge="1">
                    <mxGeometry relative="1" as="geometry"/>
                </mxCell>
                <mxCell id="mlyRW9mOE5CwS9S9jdWl-7" value="Python SDK" style="rounded=1;whiteSpace=wrap;html=1;" parent="1" vertex="1">
                    <mxGeometry x="30" y="145" width="120" height="70" as="geometry"/>
                </mxCell>
                <mxCell id="mlyRW9mOE5CwS9S9jdWl-11" value="Other clients possible" style="rounded=1;whiteSpace=wrap;html=1;dashed=1;" parent="1" vertex="1">
                    <mxGeometry x="30" y="240" width="120" height="70" as="geometry"/>
                </mxCell>
                <mxCell id="mlyRW9mOE5CwS9S9jdWl-14" value="&lt;div&gt;Multiclient &lt;br&gt;&lt;/div&gt;&lt;div&gt;websocket API&lt;/div&gt;" style="rounded=1;whiteSpace=wrap;html=1;verticalAlign=middle;" parent="1" vertex="1">
                    <mxGeometry x="330" y="130" width="70" height="100" as="geometry"/>
                </mxCell>
                <mxCell id="mlyRW9mOE5CwS9S9jdWl-16" value="Half duplex polling based communication" style="rounded=1;whiteSpace=wrap;html=1;dashed=1;verticalAlign=middle;fontStyle=2;spacingLeft=5;spacingRight=5;spacing=-1;spacingBottom=5;spacingTop=5;" parent="1" vertex="1">
                    <mxGeometry x="579" y="40" width="130" height="40" as="geometry"/>
                </mxCell>
                <mxCell id="mlyRW9mOE5CwS9S9jdWl-17" value="Small adapter to be written to connect Scrutiny in/out streams to a physical device" style="rounded=1;whiteSpace=wrap;html=1;dashed=1;verticalAlign=middle;fontStyle=2;fontFamily=Helvetica;" parent="1" vertex="1">
                    <mxGeometry x="540" y="320" width="180" height="50" as="geometry"/>
                </mxCell>
                <mxCell id="mlyRW9mOE5CwS9S9jdWl-18" value="" style="endArrow=classic;html=1;rounded=0;dashed=1;" parent="1" source="mlyRW9mOE5CwS9S9jdWl-17" edge="1">
                    <mxGeometry width="50" height="50" relative="1" as="geometry">
                        <mxPoint x="430" y="210" as="sourcePoint"/>
                        <mxPoint x="685" y="210" as="targetPoint"/>
                    </mxGeometry>
                </mxCell>
                <mxCell id="mlyRW9mOE5CwS9S9jdWl-22" value="" style="rounded=1;whiteSpace=wrap;html=1;fillColor=#f5f5f5;fontColor=#333333;strokeColor=#666666;" parent="1" vertex="1">
                    <mxGeometry x="677" y="150" width="15" height="60" as="geometry"/>
                </mxCell>
                <mxCell id="mlyRW9mOE5CwS9S9jdWl-4" style="edgeStyle=orthogonalEdgeStyle;rounded=0;orthogonalLoop=1;jettySize=auto;html=1;startArrow=classic;startFill=1;" parent="1" source="mlyRW9mOE5CwS9S9jdWl-1" target="mlyRW9mOE5CwS9S9jdWl-3" edge="1">
                    <mxGeometry relative="1" as="geometry"/>
                </mxCell>
                <mxCell id="mlyRW9mOE5CwS9S9jdWl-25" value="Websocket" style="text;html=1;align=center;verticalAlign=middle;resizable=0;points=[];autosize=1;strokeColor=none;fillColor=none;" parent="1" vertex="1">
                    <mxGeometry x="200" y="150" width="80" height="30" as="geometry"/>
                </mxCell>
                <mxCell id="mlyRW9mOE5CwS9S9jdWl-26" value="Full duplex event based communication" style="rounded=1;whiteSpace=wrap;html=1;dashed=1;verticalAlign=middle;fontStyle=2;spacingTop=5;spacingLeft=5;spacingBottom=5;spacingRight=5;" parent="1" vertex="1">
                    <mxGeometry x="200" y="30" width="140" height="40" as="geometry"/>
                </mxCell>
                <mxCell id="mlyRW9mOE5CwS9S9jdWl-27" value="" style="endArrow=classic;html=1;rounded=0;dashed=1;exitX=0.5;exitY=1;exitDx=0;exitDy=0;" parent="1" source="mlyRW9mOE5CwS9S9jdWl-16" edge="1">
                    <mxGeometry width="50" height="50" relative="1" as="geometry">
                        <mxPoint x="724.1203703703704" y="330" as="sourcePoint"/>
                        <mxPoint x="620" y="170" as="targetPoint"/>
                    </mxGeometry>
                </mxCell>
                <mxCell id="mlyRW9mOE5CwS9S9jdWl-28" value="" style="endArrow=classic;html=1;rounded=0;dashed=1;exitX=0.5;exitY=1;exitDx=0;exitDy=0;" parent="1" source="mlyRW9mOE5CwS9S9jdWl-26" edge="1">
                    <mxGeometry width="50" height="50" relative="1" as="geometry">
                        <mxPoint x="545" y="90" as="sourcePoint"/>
                        <mxPoint x="250" y="120" as="targetPoint"/>
                    </mxGeometry>
                </mxCell>
                <mxCell id="mlyRW9mOE5CwS9S9jdWl-29" value="Any channel&lt;br&gt;&lt;div&gt;(UDP,&amp;nbsp; CAN, Serial, etc.)&lt;/div&gt;" style="text;html=1;align=center;verticalAlign=middle;resizable=0;points=[];autosize=1;strokeColor=none;fillColor=none;" parent="1" vertex="1">
                    <mxGeometry x="520" y="180" width="150" height="40" as="geometry"/>
                </mxCell>
                <mxCell id="SQRKmvJDJixICkFWZuLB-2" value="" style="endArrow=classic;startArrow=classic;html=1;rounded=0;entryX=0;entryY=0.571;entryDx=0;entryDy=0;entryPerimeter=0;exitX=1;exitY=0.5;exitDx=0;exitDy=0;" parent="1" source="mlyRW9mOE5CwS9S9jdWl-11" target="mlyRW9mOE5CwS9S9jdWl-14" edge="1">
                    <mxGeometry width="50" height="50" relative="1" as="geometry">
                        <mxPoint x="160" y="280" as="sourcePoint"/>
                        <mxPoint x="440" y="220" as="targetPoint"/>
                    </mxGeometry>
                </mxCell>
                <mxCell id="SQRKmvJDJixICkFWZuLB-3" value="" style="endArrow=classic;startArrow=classic;html=1;rounded=0;entryX=0;entryY=0.429;entryDx=0;entryDy=0;entryPerimeter=0;exitX=1;exitY=0.5;exitDx=0;exitDy=0;" parent="1" source="mlyRW9mOE5CwS9S9jdWl-6" target="mlyRW9mOE5CwS9S9jdWl-14" edge="1">
                    <mxGeometry width="50" height="50" relative="1" as="geometry">
                        <mxPoint x="170" y="290" as="sourcePoint"/>
                        <mxPoint x="340" y="200" as="targetPoint"/>
                    </mxGeometry>
                </mxCell>
                <mxCell id="SQRKmvJDJixICkFWZuLB-6" style="edgeStyle=orthogonalEdgeStyle;rounded=0;orthogonalLoop=1;jettySize=auto;html=1;exitX=0.5;exitY=0;exitDx=0;exitDy=0;" parent="1" source="SQRKmvJDJixICkFWZuLB-4" target="mlyRW9mOE5CwS9S9jdWl-1" edge="1">
                    <mxGeometry relative="1" as="geometry"/>
                </mxCell>
                <mxCell id="SQRKmvJDJixICkFWZuLB-4" value="&lt;div align=&quot;center&quot;&gt;Firmware Description&lt;br&gt;(file.sfd)&lt;br&gt;&lt;/div&gt;&lt;div align=&quot;left&quot;&gt;&lt;ul&gt;&lt;li&gt;Firmware ID&lt;/li&gt;&lt;li&gt;Debug symbols&lt;/li&gt;&lt;li&gt;Aliases&lt;/li&gt;&lt;li&gt;Metadata (author, version, etc.)&lt;br&gt;&lt;/li&gt;&lt;/ul&gt;&lt;/div&gt;" style="rounded=1;whiteSpace=wrap;html=1;verticalAlign=top;" parent="1" vertex="1">
                    <mxGeometry x="348" y="370" width="155" height="150" as="geometry"/>
                </mxCell>
                <mxCell id="SQRKmvJDJixICkFWZuLB-5" value="Device Handler" style="rounded=1;whiteSpace=wrap;html=1;verticalAlign=middle;" parent="1" vertex="1">
                    <mxGeometry x="460" y="130" width="60" height="100" as="geometry"/>
                </mxCell>
                <mxCell id="SQRKmvJDJixICkFWZuLB-8" style="edgeStyle=orthogonalEdgeStyle;rounded=0;orthogonalLoop=1;jettySize=auto;html=1;exitX=0.5;exitY=0;exitDx=0;exitDy=0;entryX=0.5;entryY=1;entryDx=0;entryDy=0;fontFamily=Helvetica;" parent="1" source="SQRKmvJDJixICkFWZuLB-7" target="mlyRW9mOE5CwS9S9jdWl-3" edge="1">
                    <mxGeometry relative="1" as="geometry"/>
                </mxCell>
                <mxCell id="SQRKmvJDJixICkFWZuLB-7" value="Firmware ID" style="rounded=1;whiteSpace=wrap;html=1;" parent="1" vertex="1">
                    <mxGeometry x="709" y="230" width="70" height="20" as="geometry"/>
                </mxCell>
                <mxCell id="SQRKmvJDJixICkFWZuLB-9" value="Unique ID injected in binary at build time" style="rounded=1;whiteSpace=wrap;html=1;dashed=1;verticalAlign=middle;fontStyle=2" parent="1" vertex="1">
                    <mxGeometry x="750" y="310" width="140" height="45" as="geometry"/>
                </mxCell>
                <mxCell id="SQRKmvJDJixICkFWZuLB-12" value="" style="endArrow=classic;html=1;rounded=0;dashed=1;entryX=1;entryY=1;entryDx=0;entryDy=0;exitX=0.5;exitY=0;exitDx=0;exitDy=0;" parent="1" source="SQRKmvJDJixICkFWZuLB-9" target="SQRKmvJDJixICkFWZuLB-7" edge="1">
                    <mxGeometry width="50" height="50" relative="1" as="geometry">
                        <mxPoint x="820" y="300" as="sourcePoint"/>
                        <mxPoint x="698" y="220" as="targetPoint"/>
                    </mxGeometry>
                </mxCell>
                <mxCell id="SQRKmvJDJixICkFWZuLB-14" value="&lt;div&gt;Automatically loaded upon connection with the device&lt;/div&gt;&lt;div&gt;(based on Firmware ID)&lt;/div&gt;" style="rounded=1;whiteSpace=wrap;html=1;dashed=1;verticalAlign=middle;fontStyle=2;fontFamily=Helvetica;" parent="1" vertex="1">
                    <mxGeometry x="70" y="410" width="180" height="50" as="geometry"/>
                </mxCell>
                <mxCell id="SQRKmvJDJixICkFWZuLB-16" value="" style="endArrow=classic;html=1;rounded=0;dashed=1;entryX=0;entryY=0.5;entryDx=0;entryDy=0;exitX=1;exitY=0.5;exitDx=0;exitDy=0;" parent="1" source="SQRKmvJDJixICkFWZuLB-14" target="SQRKmvJDJixICkFWZuLB-4" edge="1">
                    <mxGeometry width="50" height="50" relative="1" as="geometry">
                        <mxPoint x="200" y="420" as="sourcePoint"/>
                        <mxPoint x="245" y="310" as="targetPoint"/>
                    </mxGeometry>
                </mxCell>
            </root>
        </mxGraphModel>
    </diagram>
</mxfile>